<svg width="26" height="38" viewBox="0 0 26 38" fill="none" xmlns="http://www.w3.org/2000/svg">
<path d="M21.306 12.1973C21.0948 11.9584 20.7985 11.8498 20.5086 11.9054C20.2181 11.9607 19.9673 12.173 19.8325 12.4777C19.3691 13.5258 18.7804 14.4891 18.0879 15.3405C18.157 14.7254 18.1917 14.1067 18.1917 13.4862C18.1917 12.2957 18.0547 11.0706 17.7842 9.84456C16.8952 5.81734 14.5638 2.41159 11.3881 0.500611C11.1117 0.334292 10.7822 0.340132 10.5102 0.516184C10.2382 0.692307 10.06 1.01521 10.0356 1.3764C9.78805 5.03615 8.16892 8.36571 5.59091 10.5135C5.55679 10.5421 5.52291 10.5711 5.48904 10.6C5.41887 10.6597 5.35274 10.7162 5.29096 10.7637C5.28127 10.7712 5.27169 10.7788 5.26228 10.7867C3.64091 12.1382 2.30309 13.9398 1.39324 15.9973C0.468749 18.0901 0 20.3359 0 22.6721C0 23.8622 0.137032 25.0873 0.40732 26.3136C1.8337 32.7773 6.82984 37.2916 12.557 37.2916C19.4806 37.2916 25.1133 30.7333 25.1133 22.6721C25.1133 18.6968 23.7612 14.9768 21.306 12.1973Z" fill="#CBCFFA"/>
<path d="M12.0763 27.2247C14.1987 27.2247 15.9192 25.2215 15.9192 22.7505C15.9192 20.2795 14.1987 18.2764 12.0763 18.2764C9.95387 18.2764 8.23334 20.2795 8.23334 22.7505C8.23334 25.2215 9.95387 27.2247 12.0763 27.2247Z" fill="#F8F8F8"/>
</svg>
